<mxfile host="Electron" agent="Mozilla/5.0 (X11; Linux x86_64) AppleWebKit/537.36 (KHTML, like Gecko) draw.io/26.0.16 Chrome/132.0.6834.196 Electron/34.2.0 Safari/537.36" version="26.0.16">
  <diagram name="Page-1" id="_9h94Fa5iUUOn6h_M6oG">
    <mxGraphModel dx="2074" dy="1929" grid="1" gridSize="10" guides="1" tooltips="1" connect="1" arrows="1" fold="1" page="1" pageScale="1" pageWidth="850" pageHeight="1100" math="0" shadow="0">
      <root>
        <mxCell id="0" />
        <mxCell id="1" parent="0" />
        <mxCell id="l1Lvxhjas3BEqWuYBTaV-3" style="edgeStyle=orthogonalEdgeStyle;rounded=0;orthogonalLoop=1;jettySize=auto;html=1;entryX=0.5;entryY=0;entryDx=0;entryDy=0;" parent="1" source="l1Lvxhjas3BEqWuYBTaV-1" target="l1Lvxhjas3BEqWuYBTaV-2" edge="1">
          <mxGeometry relative="1" as="geometry" />
        </mxCell>
        <mxCell id="l1Lvxhjas3BEqWuYBTaV-1" value="A normal person using bitcoin" style="rounded=0;whiteSpace=wrap;html=1;" parent="1" vertex="1">
          <mxGeometry x="340" y="40" width="210" height="80" as="geometry" />
        </mxCell>
        <mxCell id="l1Lvxhjas3BEqWuYBTaV-5" style="edgeStyle=orthogonalEdgeStyle;rounded=0;orthogonalLoop=1;jettySize=auto;html=1;" parent="1" source="l1Lvxhjas3BEqWuYBTaV-2" target="l1Lvxhjas3BEqWuYBTaV-4" edge="1">
          <mxGeometry relative="1" as="geometry" />
        </mxCell>
        <mxCell id="l1Lvxhjas3BEqWuYBTaV-7" style="edgeStyle=orthogonalEdgeStyle;rounded=0;orthogonalLoop=1;jettySize=auto;html=1;entryX=0;entryY=0.5;entryDx=0;entryDy=0;" parent="1" source="l1Lvxhjas3BEqWuYBTaV-2" target="l1Lvxhjas3BEqWuYBTaV-6" edge="1">
          <mxGeometry relative="1" as="geometry" />
        </mxCell>
        <mxCell id="l1Lvxhjas3BEqWuYBTaV-2" value="Normal bitcoin payment for any place.&amp;nbsp;The person does not pay any fee,&amp;nbsp;paying only the natural blockchain gas rate" style="rounded=0;whiteSpace=wrap;html=1;" parent="1" vertex="1">
          <mxGeometry x="343.75" y="170" width="202.5" height="70" as="geometry" />
        </mxCell>
        <mxCell id="l1Lvxhjas3BEqWuYBTaV-18" style="edgeStyle=orthogonalEdgeStyle;rounded=0;orthogonalLoop=1;jettySize=auto;html=1;" parent="1" source="l1Lvxhjas3BEqWuYBTaV-4" target="l1Lvxhjas3BEqWuYBTaV-17" edge="1">
          <mxGeometry relative="1" as="geometry" />
        </mxCell>
        <mxCell id="l1Lvxhjas3BEqWuYBTaV-4" value="The person who will receive the payment" style="rounded=0;whiteSpace=wrap;html=1;" parent="1" vertex="1">
          <mxGeometry x="367.5" y="300" width="155" height="60" as="geometry" />
        </mxCell>
        <mxCell id="l1Lvxhjas3BEqWuYBTaV-9" style="edgeStyle=orthogonalEdgeStyle;rounded=0;orthogonalLoop=1;jettySize=auto;html=1;entryX=0.5;entryY=0;entryDx=0;entryDy=0;" parent="1" source="l1Lvxhjas3BEqWuYBTaV-6" target="l1Lvxhjas3BEqWuYBTaV-8" edge="1">
          <mxGeometry relative="1" as="geometry" />
        </mxCell>
        <mxCell id="l1Lvxhjas3BEqWuYBTaV-11" style="edgeStyle=orthogonalEdgeStyle;rounded=0;orthogonalLoop=1;jettySize=auto;html=1;entryX=0.5;entryY=1;entryDx=0;entryDy=0;" parent="1" source="l1Lvxhjas3BEqWuYBTaV-6" target="l1Lvxhjas3BEqWuYBTaV-10" edge="1">
          <mxGeometry relative="1" as="geometry" />
        </mxCell>
        <mxCell id="l1Lvxhjas3BEqWuYBTaV-6" value="Natural blockchain transaction gas rate withdrawn from payment" style="rounded=0;whiteSpace=wrap;html=1;" parent="1" vertex="1">
          <mxGeometry x="625" y="165" width="180" height="80" as="geometry" />
        </mxCell>
        <mxCell id="l1Lvxhjas3BEqWuYBTaV-23" style="edgeStyle=orthogonalEdgeStyle;rounded=0;orthogonalLoop=1;jettySize=auto;html=1;" parent="1" source="l1Lvxhjas3BEqWuYBTaV-8" target="l1Lvxhjas3BEqWuYBTaV-21" edge="1">
          <mxGeometry relative="1" as="geometry" />
        </mxCell>
        <mxCell id="l1Lvxhjas3BEqWuYBTaV-8" value="Mining institution of bitcoins. Here we can put an administrator of a private or public municipality.&lt;div&gt;&lt;br&gt;&lt;/div&gt;&lt;div&gt;All mined bitcoins enter the vault of this municipality&amp;nbsp;ministry&lt;/div&gt;" style="rounded=0;whiteSpace=wrap;html=1;" parent="1" vertex="1">
          <mxGeometry x="700" y="330" width="265" height="110" as="geometry" />
        </mxCell>
        <mxCell id="l1Lvxhjas3BEqWuYBTaV-13" style="edgeStyle=orthogonalEdgeStyle;rounded=0;orthogonalLoop=1;jettySize=auto;html=1;" parent="1" source="l1Lvxhjas3BEqWuYBTaV-10" target="l1Lvxhjas3BEqWuYBTaV-12" edge="1">
          <mxGeometry relative="1" as="geometry" />
        </mxCell>
        <mxCell id="l1Lvxhjas3BEqWuYBTaV-10" value="Private sector of people who will not be accounted for in this presentation." style="rounded=0;whiteSpace=wrap;html=1;" parent="1" vertex="1">
          <mxGeometry x="630" y="-5" width="170" height="70" as="geometry" />
        </mxCell>
        <mxCell id="l1Lvxhjas3BEqWuYBTaV-12" value="Private sector ends here" style="ellipse;whiteSpace=wrap;html=1;aspect=fixed;" parent="1" vertex="1">
          <mxGeometry x="675" y="-170" width="80" height="80" as="geometry" />
        </mxCell>
        <mxCell id="l1Lvxhjas3BEqWuYBTaV-16" style="edgeStyle=orthogonalEdgeStyle;rounded=0;orthogonalLoop=1;jettySize=auto;html=1;" parent="1" source="l1Lvxhjas3BEqWuYBTaV-15" target="l1Lvxhjas3BEqWuYBTaV-1" edge="1">
          <mxGeometry relative="1" as="geometry" />
        </mxCell>
        <mxCell id="l1Lvxhjas3BEqWuYBTaV-15" value="Actor" style="shape=umlActor;verticalLabelPosition=bottom;verticalAlign=top;html=1;outlineConnect=0;" parent="1" vertex="1">
          <mxGeometry x="230" width="30" height="60" as="geometry" />
        </mxCell>
        <mxCell id="l1Lvxhjas3BEqWuYBTaV-17" value="Bitcoin transaction is ended here" style="ellipse;whiteSpace=wrap;html=1;aspect=fixed;" parent="1" vertex="1">
          <mxGeometry x="405" y="420" width="80" height="80" as="geometry" />
        </mxCell>
        <mxCell id="l1Lvxhjas3BEqWuYBTaV-24" style="edgeStyle=orthogonalEdgeStyle;rounded=0;orthogonalLoop=1;jettySize=auto;html=1;entryX=0;entryY=0.5;entryDx=0;entryDy=0;" parent="1" source="l1Lvxhjas3BEqWuYBTaV-21" target="l1Lvxhjas3BEqWuYBTaV-2" edge="1">
          <mxGeometry relative="1" as="geometry">
            <Array as="points">
              <mxPoint x="280" y="560" />
              <mxPoint x="280" y="205" />
            </Array>
          </mxGeometry>
        </mxCell>
        <mxCell id="l1Lvxhjas3BEqWuYBTaV-21" value="Government projects payments.&amp;nbsp;Put everything you imagine, employee payments, social services, public services and everything in general." style="rounded=0;whiteSpace=wrap;html=1;" parent="1" vertex="1">
          <mxGeometry x="560" y="520" width="220" height="80" as="geometry" />
        </mxCell>
        <mxCell id="l1Lvxhjas3BEqWuYBTaV-26" style="edgeStyle=orthogonalEdgeStyle;rounded=0;orthogonalLoop=1;jettySize=auto;html=1;" parent="1" source="l1Lvxhjas3BEqWuYBTaV-25" target="l1Lvxhjas3BEqWuYBTaV-6" edge="1">
          <mxGeometry relative="1" as="geometry" />
        </mxCell>
        <mxCell id="l1Lvxhjas3BEqWuYBTaV-25" value="&lt;div&gt;&lt;p class=&quot;&quot; data-end=&quot;581&quot; data-start=&quot;144&quot;&gt;&lt;span style=&quot;background-color: light-dark(#ffffff, var(--ge-dark-color, #121212));&quot;&gt;&lt;strong data-end=&quot;188&quot; data-start=&quot;144&quot;&gt;Bitcoin Network Fees (Transaction Fees):&lt;/strong&gt;&lt;br data-end=&quot;191&quot; data-start=&quot;188&quot;&gt;&lt;br&gt;Bitcoin network fees are small amounts of BTC paid by users to get their transactions confirmed by miners. These fees are not fixedâ€”they fluctuate depending on network congestion. When many users are sending transactions, fees rise due to limited space per block (about 1 MB). Miners usually pick the transactions with the highest fees first, so paying more can lead to faster confirmation.&lt;/span&gt;&lt;/p&gt;&lt;p class=&quot;&quot; data-end=&quot;875&quot; data-start=&quot;583&quot;&gt;&lt;span style=&quot;background-color: light-dark(#ffffff, var(--ge-dark-color, #121212));&quot;&gt;&lt;strong data-end=&quot;608&quot; data-start=&quot;583&quot;&gt;Fee Update Frequency:&lt;/strong&gt;&lt;br data-end=&quot;611&quot; data-start=&quot;608&quot;&gt;&lt;br&gt;Fee rates adjust approximately every 10 minutes, which is the average time it takes for a new block to be mined. However, fee estimators and wallets can adjust suggested fees more frequently by observing the mempool (the pool of pending transactions) in real time.&lt;/span&gt;&lt;/p&gt;&lt;p class=&quot;&quot; data-end=&quot;1412&quot; data-start=&quot;877&quot;&gt;&lt;span style=&quot;background-color: light-dark(#ffffff, var(--ge-dark-color, #121212));&quot;&gt;&lt;strong data-end=&quot;915&quot; data-start=&quot;877&quot;&gt;Impact of Mining Power (Hashrate):&lt;/strong&gt;&lt;br data-end=&quot;918&quot; data-start=&quot;915&quot;&gt;&lt;br&gt;The total number of mining machines (mining power or hashrate) does not directly control fees, but it influences block creation stability. If more miners are active, blocks tend to be found more consistently, keeping the 10-minute average more stable. If many miners leave the network, block times can slow down until the next difficulty adjustment (which happens every 2016 blocks, or about every 2 weeks), causing transactions to take longer and potentially increasing fees due to congestion.&lt;/span&gt;&lt;/p&gt;&lt;/div&gt;" style="shape=process;whiteSpace=wrap;html=1;backgroundOutline=1;fillColor=#e1d5e7;strokeColor=#9673a6;" parent="1" vertex="1">
          <mxGeometry x="1120" y="-310" width="410" height="490" as="geometry" />
        </mxCell>
        <mxCell id="l1Lvxhjas3BEqWuYBTaV-32" style="edgeStyle=orthogonalEdgeStyle;rounded=0;orthogonalLoop=1;jettySize=auto;html=1;exitX=0.997;exitY=0.694;exitDx=0;exitDy=0;exitPerimeter=0;entryX=-0.003;entryY=0.021;entryDx=0;entryDy=0;entryPerimeter=0;" parent="1" source="l1Lvxhjas3BEqWuYBTaV-27" target="l1Lvxhjas3BEqWuYBTaV-31" edge="1">
          <mxGeometry relative="1" as="geometry" />
        </mxCell>
        <mxCell id="l1Lvxhjas3BEqWuYBTaV-27" value="&lt;p class=&quot;&quot; data-end=&quot;260&quot; data-start=&quot;172&quot;&gt;&lt;strong style=&quot;background-color: light-dark(#ffffff, var(--ge-dark-color, #121212));&quot; data-end=&quot;260&quot; data-start=&quot;172&quot;&gt;Decentralized Taxation Through Bitcoin Mining Fees â€“ A Hypothetical Government Model&lt;/strong&gt;&lt;/p&gt;&lt;p class=&quot;&quot; data-end=&quot;613&quot; data-start=&quot;262&quot;&gt;&lt;span style=&quot;background-color: light-dark(#ffffff, var(--ge-dark-color, #121212));&quot;&gt;In this alternative system, instead of taxing products or income, the government funds itself by participating directly in the Bitcoin network as a miner. Every municipality is responsible for building and maintaining its own mining infrastructure. The revenue generated from mining fees and block rewards becomes the primary source of public funding.&lt;/span&gt;&lt;/p&gt;&lt;h3 class=&quot;&quot; data-end=&quot;635&quot; data-start=&quot;615&quot;&gt;&lt;strong style=&quot;background-color: light-dark(#ffffff, var(--ge-dark-color, #121212));&quot; data-end=&quot;635&quot; data-start=&quot;619&quot;&gt;How It Works&lt;/strong&gt;&lt;/h3&gt;&lt;ol data-end=&quot;2541&quot; data-start=&quot;637&quot;&gt;&lt;li class=&quot;&quot; data-end=&quot;898&quot; data-start=&quot;637&quot;&gt;&lt;p class=&quot;&quot; data-end=&quot;898&quot; data-start=&quot;640&quot;&gt;&lt;span style=&quot;background-color: light-dark(#ffffff, var(--ge-dark-color, #121212));&quot;&gt;&lt;strong data-end=&quot;674&quot; data-start=&quot;640&quot;&gt;Municipality-Based Mining Hubs&lt;/strong&gt;&lt;br data-end=&quot;677&quot; data-start=&quot;674&quot;&gt;&lt;br&gt;Each city or town sets up its own local mining facility, powered ideally by renewable or low-cost energy sources. These hubs are publicly owned and operated, possibly managed by a local agency or community cooperative.&lt;/span&gt;&lt;/p&gt;&lt;/li&gt;&lt;li class=&quot;&quot; data-end=&quot;1291&quot; data-start=&quot;900&quot;&gt;&lt;p class=&quot;&quot; data-end=&quot;956&quot; data-start=&quot;903&quot;&gt;&lt;span style=&quot;background-color: light-dark(#ffffff, var(--ge-dark-color, #121212));&quot;&gt;&lt;strong data-end=&quot;925&quot; data-start=&quot;903&quot;&gt;Revenue Generation&lt;/strong&gt;&lt;br data-end=&quot;928&quot; data-start=&quot;925&quot;&gt;&lt;br&gt;Mining rewards come from:&lt;/span&gt;&lt;/p&gt;&lt;ul data-end=&quot;1134&quot; data-start=&quot;960&quot;&gt;&lt;li class=&quot;&quot; data-end=&quot;1060&quot; data-start=&quot;960&quot;&gt;&lt;p class=&quot;&quot; data-end=&quot;1060&quot; data-start=&quot;962&quot;&gt;&lt;span style=&quot;background-color: light-dark(#ffffff, var(--ge-dark-color, #121212));&quot;&gt;&lt;strong data-end=&quot;979&quot; data-start=&quot;962&quot;&gt;Block rewards&lt;/strong&gt; (currently 3.125 BTC per block as of the 2024 halving, reducing every ~4 years),&lt;/span&gt;&lt;/p&gt;&lt;/li&gt;&lt;li class=&quot;&quot; data-end=&quot;1134&quot; data-start=&quot;1064&quot;&gt;&lt;p class=&quot;&quot; data-end=&quot;1134&quot; data-start=&quot;1066&quot;&gt;&lt;span style=&quot;background-color: light-dark(#ffffff, var(--ge-dark-color, #121212));&quot;&gt;&lt;strong data-end=&quot;1086&quot; data-start=&quot;1066&quot;&gt;Transaction fees&lt;/strong&gt; paid by users to prioritize their transactions.&lt;/span&gt;&lt;/p&gt;&lt;/li&gt;&lt;/ul&gt;&lt;p class=&quot;&quot; data-end=&quot;1291&quot; data-start=&quot;1139&quot;&gt;&lt;span style=&quot;background-color: light-dark(#ffffff, var(--ge-dark-color, #121212));&quot;&gt;This BTC is automatically collected by the municipality&#39;s mining operation.&lt;/span&gt;&lt;/p&gt;&lt;/li&gt;&lt;li class=&quot;&quot; data-end=&quot;1541&quot; data-start=&quot;1293&quot;&gt;&lt;p class=&quot;&quot; data-end=&quot;1541&quot; data-start=&quot;1296&quot;&gt;&lt;span style=&quot;background-color: light-dark(#ffffff, var(--ge-dark-color, #121212));&quot;&gt;&lt;strong data-end=&quot;1329&quot; data-start=&quot;1296&quot;&gt;No Taxes on Goods or Services&lt;/strong&gt;&lt;br data-end=&quot;1332&quot; data-start=&quot;1329&quot;&gt;&lt;br&gt;Because funding is sourced from mining, there are no taxes on product sales, income, or services. This reduces economic friction, encourages entrepreneurship, and simplifies pricing and business operations.&lt;/span&gt;&lt;/p&gt;&lt;/li&gt;&lt;li class=&quot;&quot; data-end=&quot;1871&quot; data-start=&quot;1543&quot;&gt;&lt;p class=&quot;&quot; data-end=&quot;1871&quot; data-start=&quot;1546&quot;&gt;&lt;span style=&quot;background-color: light-dark(#ffffff, var(--ge-dark-color, #121212));&quot;&gt;&lt;strong data-end=&quot;1596&quot; data-start=&quot;1546&quot;&gt;Incentivizing Efficiency and Energy Innovation&lt;/strong&gt;&lt;br data-end=&quot;1599&quot; data-start=&quot;1596&quot;&gt;&lt;br&gt;Municipalities are encouraged to optimize their mining rigs and energy usage. Cities with better infrastructure and cheaper energy can mine more effectively, generating more revenue. This naturally pushes local governments toward cleaner, more efficient energy sources.&lt;/span&gt;&lt;/p&gt;&lt;/li&gt;&lt;li class=&quot;&quot; data-end=&quot;2212&quot; data-start=&quot;1873&quot;&gt;&lt;p class=&quot;&quot; data-end=&quot;2212&quot; data-start=&quot;1876&quot;&gt;&lt;span style=&quot;background-color: light-dark(#ffffff, var(--ge-dark-color, #121212));&quot;&gt;&lt;strong data-end=&quot;1913&quot; data-start=&quot;1876&quot;&gt;Resource Redistribution Mechanism (Optional)&lt;/strong&gt;&lt;br data-end=&quot;1916&quot; data-start=&quot;1913&quot;&gt;&lt;br&gt;To prevent inequality between small and large cities (since mining profitability varies), a portion of all mined BTC could go into a &lt;strong data-end=&quot;2084&quot; data-start=&quot;2052&quot;&gt;national redistribution pool&lt;/strong&gt;, which is then allocated based on population or need, ensuring basic funding even for municipalities with weaker mining output.&lt;/span&gt;&lt;/p&gt;&lt;/li&gt;&lt;li class=&quot;&quot; data-end=&quot;2541&quot; data-start=&quot;2214&quot;&gt;&lt;p class=&quot;&quot; data-end=&quot;2541&quot; data-start=&quot;2217&quot;&gt;&lt;span style=&quot;background-color: light-dark(#ffffff, var(--ge-dark-color, #121212));&quot;&gt;&lt;strong data-end=&quot;2252&quot; data-start=&quot;2217&quot;&gt;Network Security as Public Duty&lt;/strong&gt;&lt;br data-end=&quot;2255&quot; data-start=&quot;2252&quot;&gt;&lt;br&gt;Instead of viewing miners as private actors, mining becomes a civic duty â€” a governmentâ€™s contribution to global network security and financial infrastructure. Citizens may even be able to participate by contributing hardware or renting processing power to the municipal mining pool.&lt;/span&gt;&lt;/p&gt;&lt;/li&gt;&lt;/ol&gt;&lt;h3 class=&quot;&quot; data-end=&quot;2559&quot; data-start=&quot;2543&quot;&gt;&lt;strong style=&quot;background-color: light-dark(#ffffff, var(--ge-dark-color, #121212));&quot; data-end=&quot;2559&quot; data-start=&quot;2547&quot;&gt;Benefits&lt;/strong&gt;&lt;/h3&gt;&lt;ul data-end=&quot;2889&quot; data-start=&quot;2561&quot;&gt;&lt;li class=&quot;&quot; data-end=&quot;2626&quot; data-start=&quot;2561&quot;&gt;&lt;p class=&quot;&quot; data-end=&quot;2626&quot; data-start=&quot;2563&quot;&gt;&lt;span style=&quot;background-color: light-dark(#ffffff, var(--ge-dark-color, #121212));&quot;&gt;&lt;strong data-end=&quot;2586&quot; data-start=&quot;2563&quot;&gt;No sales tax or VAT&lt;/strong&gt;, making products cheaper for consumers.&lt;/span&gt;&lt;/p&gt;&lt;/li&gt;&lt;li class=&quot;&quot; data-end=&quot;2725&quot; data-start=&quot;2627&quot;&gt;&lt;p class=&quot;&quot; data-end=&quot;2725&quot; data-start=&quot;2629&quot;&gt;&lt;span style=&quot;background-color: light-dark(#ffffff, var(--ge-dark-color, #121212));&quot;&gt;&lt;strong data-end=&quot;2652&quot; data-start=&quot;2629&quot;&gt;Transparent funding&lt;/strong&gt;, as mining activity and income are publicly auditable on the blockchain.&lt;/span&gt;&lt;/p&gt;&lt;/li&gt;&lt;li class=&quot;&quot; data-end=&quot;2802&quot; data-start=&quot;2726&quot;&gt;&lt;p class=&quot;&quot; data-end=&quot;2802&quot; data-start=&quot;2728&quot;&gt;&lt;span style=&quot;background-color: light-dark(#ffffff, var(--ge-dark-color, #121212));&quot;&gt;&lt;strong data-end=&quot;2749&quot; data-start=&quot;2728&quot;&gt;Energy innovation&lt;/strong&gt;, as municipalities compete to mine more efficiently.&lt;/span&gt;&lt;/p&gt;&lt;/li&gt;&lt;li class=&quot;&quot; data-end=&quot;2889&quot; data-start=&quot;2803&quot;&gt;&lt;p class=&quot;&quot; data-end=&quot;2889&quot; data-start=&quot;2805&quot;&gt;&lt;span style=&quot;background-color: light-dark(#ffffff, var(--ge-dark-color, #121212));&quot;&gt;&lt;strong data-end=&quot;2833&quot; data-start=&quot;2805&quot;&gt;Decentralized governance&lt;/strong&gt;, with financial autonomy shifting to local governments.&lt;/span&gt;&lt;/p&gt;&lt;/li&gt;&lt;/ul&gt;&lt;h3 class=&quot;&quot; data-end=&quot;2909&quot; data-start=&quot;2891&quot;&gt;&lt;strong style=&quot;background-color: light-dark(#ffffff, var(--ge-dark-color, #121212));&quot; data-end=&quot;2909&quot; data-start=&quot;2895&quot;&gt;Challenges&lt;/strong&gt;&lt;/h3&gt;&lt;ul data-end=&quot;3168&quot; data-start=&quot;2911&quot;&gt;&lt;li class=&quot;&quot; data-end=&quot;2979&quot; data-start=&quot;2911&quot;&gt;&lt;p class=&quot;&quot; data-end=&quot;2979&quot; data-start=&quot;2913&quot;&gt;&lt;span style=&quot;background-color: light-dark(#ffffff, var(--ge-dark-color, #121212));&quot;&gt;&lt;strong data-end=&quot;2940&quot; data-start=&quot;2913&quot;&gt;High initial investment&lt;/strong&gt; in mining hardware and infrastructure.&lt;/span&gt;&lt;/p&gt;&lt;/li&gt;&lt;li class=&quot;&quot; data-end=&quot;3044&quot; data-start=&quot;2980&quot;&gt;&lt;p class=&quot;&quot; data-end=&quot;3044&quot; data-start=&quot;2982&quot;&gt;&lt;span style=&quot;background-color: light-dark(#ffffff, var(--ge-dark-color, #121212));&quot;&gt;&lt;strong style=&quot;&quot; data-end=&quot;2999&quot; data-start=&quot;2982&quot;&gt;Energy demand&lt;/strong&gt;, especially if not balanced with renewables.&lt;/span&gt;&lt;/p&gt;&lt;/li&gt;&lt;/ul&gt;" style="shape=process;whiteSpace=wrap;html=1;backgroundOutline=1;fillColor=#dae8fc;strokeColor=#6c8ebf;" parent="1" vertex="1">
          <mxGeometry x="1050" y="210" width="550" height="1080" as="geometry" />
        </mxCell>
        <mxCell id="l1Lvxhjas3BEqWuYBTaV-28" style="edgeStyle=orthogonalEdgeStyle;rounded=0;orthogonalLoop=1;jettySize=auto;html=1;" parent="1" source="l1Lvxhjas3BEqWuYBTaV-27" target="l1Lvxhjas3BEqWuYBTaV-8" edge="1">
          <mxGeometry relative="1" as="geometry" />
        </mxCell>
        <mxCell id="l1Lvxhjas3BEqWuYBTaV-29" style="edgeStyle=orthogonalEdgeStyle;rounded=0;orthogonalLoop=1;jettySize=auto;html=1;exitX=0.5;exitY=1;exitDx=0;exitDy=0;" parent="1" source="l1Lvxhjas3BEqWuYBTaV-27" target="l1Lvxhjas3BEqWuYBTaV-27" edge="1">
          <mxGeometry relative="1" as="geometry" />
        </mxCell>
        <mxCell id="l1Lvxhjas3BEqWuYBTaV-31" value="&lt;p&gt;&lt;strong style=&quot;color: light-dark(rgb(0, 0, 0), rgb(255, 255, 255)); background-color: light-dark(#ffffff, var(--ge-dark-color, #121212));&quot;&gt;Network Security as Public Duty (Extended Concept)&lt;/strong&gt;&lt;/p&gt;&lt;p&gt;&lt;span style=&quot;background-color: light-dark(#ffffff, var(--ge-dark-color, #121212));&quot;&gt;In a world where a government replaces taxation with Bitcoin mining revenue, &lt;strong&gt;securing the Bitcoin network&lt;/strong&gt; becomes a public responsibility â€” just like maintaining roads or hospitals. This turns miners into civic defenders, not just profit-seekers. The more a government contributes to mining, the more it strengthens the Bitcoin network while also earning funds.&lt;/span&gt;&lt;/p&gt;&lt;p&gt;&lt;span style=&quot;background-color: light-dark(#ffffff, var(--ge-dark-color, #121212));&quot;&gt;This responsibility isnâ€™t limited to hardware owned by local municipalities. Instead, the system can expand to include &lt;strong&gt;citizen participation through public mining pools.&lt;/strong&gt;&lt;/span&gt;&lt;/p&gt;&lt;span style=&quot;background-color: light-dark(#ffffff, var(--ge-dark-color, #121212));&quot;&gt;&lt;br&gt;&lt;/span&gt;&lt;hr&gt;&lt;h3&gt;&lt;strong style=&quot;background-color: light-dark(#ffffff, var(--ge-dark-color, #121212));&quot;&gt;Public Collaborative Mining Pools&lt;/strong&gt;&lt;/h3&gt;&lt;h4&gt;&lt;strong style=&quot;background-color: light-dark(#ffffff, var(--ge-dark-color, #121212));&quot;&gt;What Are They?&lt;/strong&gt;&lt;/h4&gt;&lt;p&gt;&lt;span style=&quot;background-color: light-dark(#ffffff, var(--ge-dark-color, #121212));&quot;&gt;A public mining pool is a collaborative infrastructure where individual citizens, companies, or even schools and cooperatives contribute their computing power to a government-operated mining system. In return, they receive a fair share of the rewards, or they may donate it fully or partially to the municipality.&lt;/span&gt;&lt;/p&gt;&lt;h4&gt;&lt;strong style=&quot;background-color: light-dark(#ffffff, var(--ge-dark-color, #121212));&quot;&gt;How It Fits Into the Government Model:&lt;/strong&gt;&lt;/h4&gt;&lt;ol&gt;&lt;li&gt;&lt;p&gt;&lt;span style=&quot;background-color: light-dark(#ffffff, var(--ge-dark-color, #121212));&quot;&gt;&lt;strong&gt;Government-Backed National Mining Pool (GNMP)&lt;/strong&gt;&lt;br&gt;&lt;br&gt;The country could host a &lt;strong&gt;state-run mining pool&lt;/strong&gt; open to public participation. Each municipality has a regional sub-node within the national pool, allowing:&lt;/span&gt;&lt;/p&gt;&lt;ul&gt;&lt;li&gt;&lt;p&gt;&lt;span style=&quot;background-color: light-dark(#ffffff, var(--ge-dark-color, #121212));&quot;&gt;Centralized coordination,&lt;/span&gt;&lt;/p&gt;&lt;/li&gt;&lt;li&gt;&lt;p&gt;&lt;span style=&quot;background-color: light-dark(#ffffff, var(--ge-dark-color, #121212));&quot;&gt;Transparent monitoring of hash rate contributions,&lt;/span&gt;&lt;/p&gt;&lt;/li&gt;&lt;li&gt;&lt;p&gt;&lt;span style=&quot;background-color: light-dark(#ffffff, var(--ge-dark-color, #121212));&quot;&gt;Fair revenue tracking and reward distribution.&lt;/span&gt;&lt;/p&gt;&lt;/li&gt;&lt;/ul&gt;&lt;/li&gt;&lt;li&gt;&lt;p&gt;&lt;strong style=&quot;background-color: light-dark(#ffffff, var(--ge-dark-color, #121212));&quot;&gt;Incentives for Citizens&lt;/strong&gt;&lt;/p&gt;&lt;span style=&quot;background-color: light-dark(#ffffff, var(--ge-dark-color, #121212));&quot;&gt;&lt;br&gt;&lt;/span&gt;&lt;ul&gt;&lt;li&gt;&lt;p&gt;&lt;span style=&quot;background-color: light-dark(#ffffff, var(--ge-dark-color, #121212));&quot;&gt;Citizens can connect their personal mining rigs to their &lt;strong&gt;municipal sub-pool&lt;/strong&gt;.&lt;/span&gt;&lt;/p&gt;&lt;/li&gt;&lt;li&gt;&lt;p&gt;&lt;span style=&quot;background-color: light-dark(#ffffff, var(--ge-dark-color, #121212));&quot;&gt;They earn a percentage of the rewards based on contributed hash power.&lt;/span&gt;&lt;/p&gt;&lt;/li&gt;&lt;li&gt;&lt;p&gt;&lt;span style=&quot;background-color: light-dark(#ffffff, var(--ge-dark-color, #121212));&quot;&gt;Alternatively, they may &lt;strong&gt;donate their hash power&lt;/strong&gt; (fully or partially) as a form of &lt;strong&gt;voluntary tax contribution&lt;/strong&gt;.&lt;/span&gt;&lt;/p&gt;&lt;/li&gt;&lt;li&gt;&lt;p&gt;&lt;span style=&quot;background-color: light-dark(#ffffff, var(--ge-dark-color, #121212));&quot;&gt;Contributors could earn &lt;strong&gt;tax credits&lt;/strong&gt;, &lt;strong&gt;utility discounts&lt;/strong&gt;, or &lt;strong&gt;voting rights on infrastructure use&lt;/strong&gt; based on their support level.&lt;/span&gt;&lt;/p&gt;&lt;/li&gt;&lt;/ul&gt;&lt;/li&gt;&lt;span style=&quot;background-color: light-dark(#ffffff, var(--ge-dark-color, #121212));&quot;&gt;&lt;br&gt;&lt;/span&gt;&lt;li&gt;&lt;p&gt;&lt;span style=&quot;background-color: light-dark(#ffffff, var(--ge-dark-color, #121212));&quot;&gt;&lt;strong&gt;Education and Accessibility&lt;/strong&gt;&lt;br&gt;&lt;br&gt;To lower the entry barrier, the government could:&lt;/span&gt;&lt;/p&gt;&lt;ul&gt;&lt;li&gt;&lt;p&gt;&lt;span style=&quot;background-color: light-dark(#ffffff, var(--ge-dark-color, #121212));&quot;&gt;Offer &lt;strong&gt;educational programs&lt;/strong&gt; on mining and energy efficiency.&lt;/span&gt;&lt;/p&gt;&lt;/li&gt;&lt;li&gt;&lt;p&gt;&lt;span style=&quot;background-color: light-dark(#ffffff, var(--ge-dark-color, #121212));&quot;&gt;Provide &lt;strong&gt;low-cost mining kits&lt;/strong&gt; or &lt;strong&gt;software tools&lt;/strong&gt; to help citizens participate.&lt;/span&gt;&lt;/p&gt;&lt;/li&gt;&lt;li&gt;&lt;p&gt;&lt;span style=&quot;background-color: light-dark(#ffffff, var(--ge-dark-color, #121212));&quot;&gt;Create mining co-ops where communities share the cost and rewards.&lt;/span&gt;&lt;/p&gt;&lt;/li&gt;&lt;/ul&gt;&lt;/li&gt;&lt;span style=&quot;background-color: light-dark(#ffffff, var(--ge-dark-color, #121212));&quot;&gt;&lt;br&gt;&lt;/span&gt;&lt;li&gt;&lt;p&gt;&lt;strong style=&quot;background-color: light-dark(#ffffff, var(--ge-dark-color, #121212));&quot;&gt;Transparency and Trust&lt;/strong&gt;&lt;/p&gt;&lt;ul&gt;&lt;li&gt;&lt;p&gt;&lt;span style=&quot;background-color: light-dark(#ffffff, var(--ge-dark-color, #121212));&quot;&gt;Public dashboards show live mining stats by region.&lt;/span&gt;&lt;/p&gt;&lt;/li&gt;&lt;li&gt;&lt;p&gt;&lt;span style=&quot;background-color: light-dark(#ffffff, var(--ge-dark-color, #121212));&quot;&gt;Anyone can verify their hash rate and payment history via blockchain and the national pool&#39;s website.&lt;/span&gt;&lt;/p&gt;&lt;/li&gt;&lt;li&gt;&lt;p&gt;&lt;span style=&quot;background-color: light-dark(#ffffff, var(--ge-dark-color, #121212));&quot;&gt;This reduces corruption and builds trust, as &lt;strong&gt;everyone sees where the money comes from&lt;/strong&gt; and how much energy is being consumed.&lt;/span&gt;&lt;/p&gt;&lt;/li&gt;&lt;/ul&gt;&lt;/li&gt;&lt;/ol&gt;&lt;span style=&quot;background-color: light-dark(#ffffff, var(--ge-dark-color, #121212));&quot;&gt;&lt;br&gt;&lt;/span&gt;&lt;hr&gt;&lt;span style=&quot;background-color: light-dark(#ffffff, var(--ge-dark-color, #121212));&quot;&gt;&lt;br&gt;&lt;/span&gt;&lt;h3&gt;&lt;strong style=&quot;background-color: light-dark(#ffffff, var(--ge-dark-color, #121212));&quot;&gt;Security Contribution as a Civic Metric&lt;/strong&gt;&lt;/h3&gt;&lt;p&gt;&lt;span style=&quot;background-color: light-dark(#ffffff, var(--ge-dark-color, #121212));&quot;&gt;In this model, hash rate becomes more than just a technical term â€” it becomes a &lt;strong&gt;symbol of civic contribution&lt;/strong&gt;.&lt;/span&gt;&lt;/p&gt;&lt;ul&gt;&lt;li&gt;&lt;p&gt;&lt;span style=&quot;background-color: light-dark(#ffffff, var(--ge-dark-color, #121212));&quot;&gt;A city with high hash power is not just earning more â€” itâ€™s contributing more to global financial security.&lt;/span&gt;&lt;/p&gt;&lt;/li&gt;&lt;li&gt;&lt;p&gt;&lt;span style=&quot;background-color: light-dark(#ffffff, var(--ge-dark-color, #121212));&quot;&gt;Nationally, the country is helping to &lt;strong&gt;resist 51% attacks&lt;/strong&gt;, strengthening Bitcoin for the whole world.&lt;/span&gt;&lt;/p&gt;&lt;/li&gt;&lt;li&gt;&lt;p&gt;&lt;span style=&quot;background-color: light-dark(#ffffff, var(--ge-dark-color, #121212));&quot;&gt;Citizens see themselves as part of something global, giving public mining a &lt;strong&gt;sense of purpose and identity&lt;/strong&gt;.&lt;/span&gt;&lt;/p&gt;&lt;/li&gt;&lt;/ul&gt;&lt;span style=&quot;background-color: light-dark(#ffffff, var(--ge-dark-color, #121212));&quot;&gt;&lt;br&gt;&lt;/span&gt;&lt;hr&gt;&lt;span style=&quot;background-color: light-dark(#ffffff, var(--ge-dark-color, #121212));&quot;&gt;&lt;br&gt;&lt;/span&gt;&lt;p&gt;&lt;span style=&quot;background-color: light-dark(#ffffff, var(--ge-dark-color, #121212));&quot;&gt;This concept transforms mining from a profit-driven race into a &lt;strong&gt;collaborative public service&lt;/strong&gt;, making it a pillar of a modern, blockchain-based economy. It could foster education, innovation, and a stronger connection between citizens and their digital infrastructure.&lt;/span&gt;&lt;/p&gt;" style="shape=process;whiteSpace=wrap;html=1;backgroundOutline=1;fillColor=#dae8fc;strokeColor=#6c8ebf;" parent="1" vertex="1">
          <mxGeometry x="1720" y="-230" width="600" height="1470" as="geometry" />
        </mxCell>
        <mxCell id="l1Lvxhjas3BEqWuYBTaV-36" value="&lt;p class=&quot;&quot; data-end=&quot;501&quot; data-start=&quot;151&quot;&gt;&lt;strong data-end=&quot;162&quot; data-start=&quot;151&quot;&gt;Credits&lt;/strong&gt;&lt;br data-end=&quot;165&quot; data-start=&quot;162&quot;&gt;&lt;br&gt;This project and its conceptual foundation were entirely developed by &lt;strong data-end=&quot;281&quot; data-start=&quot;247&quot;&gt;Yasmin Seidel (JasminDreasond)&lt;/strong&gt;. The idea of a government model based on decentralized taxation through Bitcoin mining â€” replacing traditional taxes with blockchain-based public infrastructure â€” is an original concept envisioned and structured by her.&lt;/p&gt;&lt;br&gt;&lt;p class=&quot;&quot; data-end=&quot;766&quot; data-start=&quot;503&quot;&gt;The exploration, elaboration, and refinement of this idea were supported by the use of &lt;strong data-end=&quot;601&quot; data-start=&quot;590&quot;&gt;ChatGPT&lt;/strong&gt;, an AI developed by OpenAI, which assisted in shaping the theoretical framework, expanding on technical components, and articulating the concept clearly in English.&lt;/p&gt;&lt;p class=&quot;&quot; data-end=&quot;920&quot; data-start=&quot;768&quot;&gt;ChatGPT served purely as an auxiliary tool in the writing and research process.&lt;/p&gt;" style="rounded=0;whiteSpace=wrap;html=1;fillColor=#f5f5f5;fontColor=#333333;strokeColor=#666666;" parent="1" vertex="1">
          <mxGeometry x="100" y="700" width="740" height="210" as="geometry" />
        </mxCell>
      </root>
    </mxGraphModel>
  </diagram>
</mxfile>
